<svg id="Capa_1" enable-background="new 0 0 512 512" height="512" viewBox="0 0 512 512" width="512" xmlns="http://www.w3.org/2000/svg"><g><circle cx="215.583" cy="194.881" r="10"/><circle cx="215.583" cy="375.734" r="10"/><circle cx="269.688" cy="375.734" r="10"/><path d="m365.118 383.017c-5.477.788-9.279 5.866-8.491 11.344.788 5.477 5.866 9.279 11.344 8.491 5.477-.788 9.279-5.866 8.491-11.344-.788-5.477-5.867-9.279-11.344-8.491z"/><path d="m466.591 242.056-88.643-220c-1.195-2.965-3.733-5.182-6.832-5.968l-62.251-15.781c-.851-.214-1.731-.307-2.607-.307h-100.592c-.871.008-1.737.1-2.582.32l-62.211 15.768c-3.099.786-5.637 3.003-6.832 5.968l-88.633 220c-2.06 5.112.396 10.927 5.495 13.017l58.524 23.977c4.83 1.978 10.369-.082 12.732-4.735l38.68-76.155v36.147l-40.764 266.158c-.442 2.888.398 5.826 2.302 8.043s4.68 3.493 7.602 3.493h252.042c2.902 0 5.66-1.257 7.564-3.448 1.903-2.19 2.763-5.098 2.358-7.971l-9.15-64.88c-.773-5.479-5.847-9.291-11.32-8.523-5.479.773-9.295 5.841-8.522 11.321l7.54 53.461h-34.056l-22.995-205.902h28.012l9.03 64.028c.774 5.49 6.047 9.361 11.515 8.491 5.318-.846 9.079-5.964 8.328-11.29l-15.928-112.935-.091-33.985 35.438 73.749c2.297 4.782 7.922 6.94 12.829 4.932l58.524-23.977c5.099-2.09 7.554-7.905 5.494-13.016zm-196.431-107.209 35.576-94.597 20.021 61.268-47.516 52.13zm21.767-114.808-33.187 88.243-37.932-88.243zm-84.339 19.985 62.004 144.245-78.348-85.966zm-99.112 216.979-40.758-16.698 83.01-206.042 40.546-10.277-20.824 74.256c-.933 3.328-.086 6.9 2.242 9.455l107.768 118.245h-99.581v-69.635c0-4.635-3.179-8.665-7.687-9.745-4.509-1.077-9.167 1.075-11.266 5.207zm104.099 9.017h-36.32l3.069-20.039h33.251zm20.039-20.04h20.039v83.731h-20.039zm83.655 245.981h-174.619l31.536-205.902h39.389v53.672c0 5.533 4.486 10.02 10.02 10.02h40.078c5.534 0 10.02-4.486 10.02-10.02v-53.672h20.581zm-43.577-225.941v-20.04h63.106l2.826 20.039h-65.932zm131.023-9.095-50.517-105.126c-2.027-4.22-6.707-6.472-11.269-5.427-4.563 1.046-7.794 5.112-7.781 9.793l.186 69.777h-25.016l-22.387-52.08 57.569-63.159c2.43-2.666 3.239-6.432 2.119-9.862l-25.044-76.638 39.688 10.061 83.019 206.042z"/></g></svg>